<mxfile host="app.diagrams.net" modified="2024-02-12T13:38:04.195Z" agent="Mozilla/5.0 (Windows NT 10.0; Win64; x64) AppleWebKit/537.36 (KHTML, like Gecko) Chrome/120.0.0.0 Safari/537.36 Edg/120.0.0.0" etag="llD7Zdwqf1wHBWbn7vHD" version="23.1.1" type="github" pages="2">
  <diagram name="Splink Linkage" id="OIkgKGxsjLkg0mJMdyOt">
    <mxGraphModel dx="2893" dy="2322" grid="1" gridSize="10" guides="1" tooltips="1" connect="1" arrows="1" fold="1" page="1" pageScale="1" pageWidth="827" pageHeight="1169" math="0" shadow="0">
      <root>
        <mxCell id="0" />
        <mxCell id="1" parent="0" />
        <mxCell id="_DT62JzY9IZAnyI1bNls-40" style="edgeStyle=orthogonalEdgeStyle;rounded=0;orthogonalLoop=1;jettySize=auto;html=1;exitX=0.5;exitY=1;exitDx=0;exitDy=0;noEdgeStyle=1;orthogonal=1;" parent="1" source="_DT62JzY9IZAnyI1bNls-12" target="_DT62JzY9IZAnyI1bNls-16" edge="1">
          <mxGeometry relative="1" as="geometry">
            <Array as="points">
              <mxPoint x="180" y="422" />
              <mxPoint x="180" y="498" />
            </Array>
          </mxGeometry>
        </mxCell>
        <mxCell id="_DT62JzY9IZAnyI1bNls-12" value="" style="shape=parallelogram;html=1;strokeWidth=2;perimeter=parallelogramPerimeter;whiteSpace=wrap;rounded=1;arcSize=12;size=0.23;" parent="1" vertex="1">
          <mxGeometry y="330" width="360" height="80" as="geometry" />
        </mxCell>
        <mxCell id="_DT62JzY9IZAnyI1bNls-2" value="&lt;br style=&quot;border-color: var(--border-color);&quot;&gt;Data Source2" style="strokeWidth=2;html=1;shape=mxgraph.flowchart.database;whiteSpace=wrap;" parent="1" vertex="1">
          <mxGeometry x="75" y="340" width="60" height="60" as="geometry" />
        </mxCell>
        <mxCell id="_DT62JzY9IZAnyI1bNls-3" value="&lt;br&gt;Data Source1" style="strokeWidth=2;html=1;shape=mxgraph.flowchart.database;whiteSpace=wrap;" parent="1" vertex="1">
          <mxGeometry x="150" y="340" width="60" height="60" as="geometry" />
        </mxCell>
        <mxCell id="_DT62JzY9IZAnyI1bNls-8" value="&lt;br style=&quot;border-color: var(--border-color);&quot;&gt;Data Source3" style="strokeWidth=2;html=1;shape=mxgraph.flowchart.database;whiteSpace=wrap;" parent="1" vertex="1">
          <mxGeometry x="225" y="340" width="60" height="60" as="geometry" />
        </mxCell>
        <mxCell id="_DT62JzY9IZAnyI1bNls-38" style="edgeStyle=orthogonalEdgeStyle;rounded=0;orthogonalLoop=1;jettySize=auto;html=1;noEdgeStyle=1;orthogonal=1;" parent="1" source="_DT62JzY9IZAnyI1bNls-11" target="_DT62JzY9IZAnyI1bNls-36" edge="1">
          <mxGeometry relative="1" as="geometry">
            <Array as="points">
              <mxPoint x="180" y="72" />
              <mxPoint x="180" y="148" />
            </Array>
          </mxGeometry>
        </mxCell>
        <mxCell id="_DT62JzY9IZAnyI1bNls-11" value="Start" style="strokeWidth=2;html=1;shape=mxgraph.flowchart.terminator;whiteSpace=wrap;" parent="1" vertex="1">
          <mxGeometry x="130" width="100" height="60" as="geometry" />
        </mxCell>
        <mxCell id="_DT62JzY9IZAnyI1bNls-32" value="" style="edgeStyle=orthogonalEdgeStyle;rounded=0;orthogonalLoop=1;jettySize=auto;html=1;noEdgeStyle=1;orthogonal=1;" parent="1" source="_DT62JzY9IZAnyI1bNls-16" target="_DT62JzY9IZAnyI1bNls-19" edge="1">
          <mxGeometry relative="1" as="geometry">
            <Array as="points">
              <mxPoint x="180" y="582" />
              <mxPoint x="180" y="658" />
            </Array>
          </mxGeometry>
        </mxCell>
        <mxCell id="_DT62JzY9IZAnyI1bNls-16" value="Data Extraction via Spark/pySpark (data streamed real time, not physically transferred to host)" style="rounded=0;whiteSpace=wrap;html=1;" parent="1" vertex="1">
          <mxGeometry x="60" y="510" width="240" height="60" as="geometry" />
        </mxCell>
        <mxCell id="_DT62JzY9IZAnyI1bNls-33" value="" style="edgeStyle=orthogonalEdgeStyle;rounded=0;orthogonalLoop=1;jettySize=auto;html=1;noEdgeStyle=1;orthogonal=1;" parent="1" source="_DT62JzY9IZAnyI1bNls-19" target="_DT62JzY9IZAnyI1bNls-23" edge="1">
          <mxGeometry relative="1" as="geometry">
            <Array as="points">
              <mxPoint x="180" y="742" />
              <mxPoint x="180" y="818" />
            </Array>
          </mxGeometry>
        </mxCell>
        <mxCell id="_DT62JzY9IZAnyI1bNls-19" value="Data from all sources processed via link or link_and_dedupe method" style="rounded=0;whiteSpace=wrap;html=1;" parent="1" vertex="1">
          <mxGeometry x="60" y="670" width="240" height="60" as="geometry" />
        </mxCell>
        <mxCell id="3Cxug3WmwxoFvh4fFdJ0-3" style="edgeStyle=orthogonalEdgeStyle;rounded=0;orthogonalLoop=1;jettySize=auto;html=1;" parent="1" source="_DT62JzY9IZAnyI1bNls-23" target="3Cxug3WmwxoFvh4fFdJ0-2" edge="1">
          <mxGeometry relative="1" as="geometry" />
        </mxCell>
        <mxCell id="_DT62JzY9IZAnyI1bNls-23" value=".csv Data Output on host&lt;br&gt;(with bilateral links)" style="shape=parallelogram;html=1;strokeWidth=2;perimeter=parallelogramPerimeter;whiteSpace=wrap;rounded=1;arcSize=12;size=0.23;" parent="1" vertex="1">
          <mxGeometry x="75" y="830" width="210" height="80" as="geometry" />
        </mxCell>
        <mxCell id="_DT62JzY9IZAnyI1bNls-41" style="edgeStyle=orthogonalEdgeStyle;rounded=0;orthogonalLoop=1;jettySize=auto;html=1;exitX=0.5;exitY=1;exitDx=0;exitDy=0;" parent="1" source="_DT62JzY9IZAnyI1bNls-36" target="_DT62JzY9IZAnyI1bNls-12" edge="1">
          <mxGeometry relative="1" as="geometry" />
        </mxCell>
        <mxCell id="_DT62JzY9IZAnyI1bNls-36" value="Configure Splink &lt;br&gt;Python Library" style="verticalLabelPosition=bottom;verticalAlign=top;html=1;shape=hexagon;perimeter=hexagonPerimeter2;arcSize=6;size=0.27;spacing=-51;" parent="1" vertex="1">
          <mxGeometry x="120" y="160" width="120" height="70" as="geometry" />
        </mxCell>
        <mxCell id="_DT62JzY9IZAnyI1bNls-45" value="End" style="strokeWidth=2;html=1;shape=mxgraph.flowchart.terminator;whiteSpace=wrap;" parent="1" vertex="1">
          <mxGeometry x="130" y="1220" width="100" height="60" as="geometry" />
        </mxCell>
        <mxCell id="3Cxug3WmwxoFvh4fFdJ0-1" value="DB connections to each data set to link configured - users/permissions at DB level previously configured" style="text;html=1;strokeColor=none;fillColor=none;align=center;verticalAlign=middle;whiteSpace=wrap;rounded=0;" parent="1" vertex="1">
          <mxGeometry x="384" y="355" width="176" height="30" as="geometry" />
        </mxCell>
        <mxCell id="3Cxug3WmwxoFvh4fFdJ0-6" style="edgeStyle=orthogonalEdgeStyle;rounded=0;orthogonalLoop=1;jettySize=auto;html=1;entryX=0.5;entryY=0;entryDx=0;entryDy=0;" parent="1" source="3Cxug3WmwxoFvh4fFdJ0-2" target="3Cxug3WmwxoFvh4fFdJ0-5" edge="1">
          <mxGeometry relative="1" as="geometry" />
        </mxCell>
        <mxCell id="3Cxug3WmwxoFvh4fFdJ0-2" value="Using original identifier or names - search for record in output" style="rounded=0;whiteSpace=wrap;html=1;" parent="1" vertex="1">
          <mxGeometry x="120" y="960" width="120" height="60" as="geometry" />
        </mxCell>
        <mxCell id="3Cxug3WmwxoFvh4fFdJ0-7" value="" style="edgeStyle=orthogonalEdgeStyle;rounded=0;orthogonalLoop=1;jettySize=auto;html=1;" parent="1" source="3Cxug3WmwxoFvh4fFdJ0-5" target="_DT62JzY9IZAnyI1bNls-45" edge="1">
          <mxGeometry relative="1" as="geometry" />
        </mxCell>
        <mxCell id="3Cxug3WmwxoFvh4fFdJ0-5" value="Match at &amp;gt;0.95 probability" style="rhombus;whiteSpace=wrap;html=1;" parent="1" vertex="1">
          <mxGeometry x="130" y="1069" width="100" height="100" as="geometry" />
        </mxCell>
        <mxCell id="3Cxug3WmwxoFvh4fFdJ0-8" style="edgeStyle=orthogonalEdgeStyle;rounded=0;orthogonalLoop=1;jettySize=auto;html=1;exitX=1;exitY=0.5;exitDx=0;exitDy=0;entryX=0.998;entryY=0.573;entryDx=0;entryDy=0;entryPerimeter=0;" parent="1" source="3Cxug3WmwxoFvh4fFdJ0-5" target="_DT62JzY9IZAnyI1bNls-45" edge="1">
          <mxGeometry relative="1" as="geometry">
            <Array as="points">
              <mxPoint x="300" y="1119" />
              <mxPoint x="300" y="1254" />
            </Array>
          </mxGeometry>
        </mxCell>
        <mxCell id="3Cxug3WmwxoFvh4fFdJ0-9" value="Yes - linked record" style="text;html=1;strokeColor=none;fillColor=none;align=center;verticalAlign=middle;whiteSpace=wrap;rounded=0;" parent="1" vertex="1">
          <mxGeometry x="100" y="1169" width="70" height="30" as="geometry" />
        </mxCell>
        <mxCell id="3Cxug3WmwxoFvh4fFdJ0-10" value="No - unique record" style="text;html=1;strokeColor=none;fillColor=none;align=center;verticalAlign=middle;whiteSpace=wrap;rounded=0;" parent="1" vertex="1">
          <mxGeometry x="300" y="1169" width="60" height="30" as="geometry" />
        </mxCell>
      </root>
    </mxGraphModel>
  </diagram>
  <diagram id="7oRGG79dJgHVbRMGVmOZ" name="UUIDs with Splink">
    <mxGraphModel dx="2066" dy="1153" grid="1" gridSize="10" guides="1" tooltips="1" connect="1" arrows="1" fold="1" page="1" pageScale="1" pageWidth="827" pageHeight="1169" math="0" shadow="0">
      <root>
        <mxCell id="0" />
        <mxCell id="1" parent="0" />
        <mxCell id="-7qHn1xBD7BPiUq-Lxa6-2" value="" style="edgeStyle=orthogonalEdgeStyle;rounded=0;orthogonalLoop=1;jettySize=auto;html=1;" parent="1" source="mewtpi49gnUvRCOg2McJ-1" target="-7qHn1xBD7BPiUq-Lxa6-1" edge="1">
          <mxGeometry relative="1" as="geometry" />
        </mxCell>
        <mxCell id="mewtpi49gnUvRCOg2McJ-5" style="edgeStyle=orthogonalEdgeStyle;rounded=0;orthogonalLoop=1;jettySize=auto;html=1;noEdgeStyle=1;orthogonal=1;" parent="1" source="mewtpi49gnUvRCOg2McJ-6" target="mewtpi49gnUvRCOg2McJ-8" edge="1">
          <mxGeometry relative="1" as="geometry">
            <Array as="points">
              <mxPoint x="410" y="182" />
              <mxPoint x="410" y="258" />
            </Array>
          </mxGeometry>
        </mxCell>
        <mxCell id="mewtpi49gnUvRCOg2McJ-6" value="Start" style="strokeWidth=2;html=1;shape=mxgraph.flowchart.terminator;whiteSpace=wrap;" parent="1" vertex="1">
          <mxGeometry x="360" y="110" width="100" height="60" as="geometry" />
        </mxCell>
        <mxCell id="mewtpi49gnUvRCOg2McJ-7" style="edgeStyle=orthogonalEdgeStyle;rounded=0;orthogonalLoop=1;jettySize=auto;html=1;exitX=0.5;exitY=1;exitDx=0;exitDy=0;" parent="1" source="mewtpi49gnUvRCOg2McJ-8" target="mewtpi49gnUvRCOg2McJ-1" edge="1">
          <mxGeometry relative="1" as="geometry" />
        </mxCell>
        <mxCell id="mewtpi49gnUvRCOg2McJ-8" value="Configure Splink &lt;br&gt;Python Library" style="verticalLabelPosition=bottom;verticalAlign=top;html=1;shape=hexagon;perimeter=hexagonPerimeter2;arcSize=6;size=0.27;spacing=-51;" parent="1" vertex="1">
          <mxGeometry x="350" y="270" width="120" height="70" as="geometry" />
        </mxCell>
        <mxCell id="mewtpi49gnUvRCOg2McJ-9" value="Each database should have table/column for unified id (common UUID)" style="text;html=1;strokeColor=none;fillColor=none;align=center;verticalAlign=middle;whiteSpace=wrap;rounded=0;" parent="1" vertex="1">
          <mxGeometry x="620" y="440" width="240" height="30" as="geometry" />
        </mxCell>
        <mxCell id="paeWMKHiud1gd23skCGw-2" value="" style="edgeStyle=orthogonalEdgeStyle;rounded=0;orthogonalLoop=1;jettySize=auto;html=1;" parent="1" source="-7qHn1xBD7BPiUq-Lxa6-1" target="paeWMKHiud1gd23skCGw-1" edge="1">
          <mxGeometry relative="1" as="geometry" />
        </mxCell>
        <mxCell id="-7qHn1xBD7BPiUq-Lxa6-1" value="Data Extraction via Spark (data streamed real time, not transferred)" style="rounded=0;whiteSpace=wrap;html=1;" parent="1" vertex="1">
          <mxGeometry x="290" y="610" width="240" height="60" as="geometry" />
        </mxCell>
        <mxCell id="paeWMKHiud1gd23skCGw-5" style="edgeStyle=orthogonalEdgeStyle;rounded=0;orthogonalLoop=1;jettySize=auto;html=1;entryX=0.5;entryY=0;entryDx=0;entryDy=0;" parent="1" source="paeWMKHiud1gd23skCGw-1" edge="1">
          <mxGeometry relative="1" as="geometry">
            <mxPoint x="410" y="900" as="targetPoint" />
          </mxGeometry>
        </mxCell>
        <mxCell id="paeWMKHiud1gd23skCGw-1" value="Process via Splink&#39;s link or link_and_dedupe method" style="rounded=0;whiteSpace=wrap;html=1;" parent="1" vertex="1">
          <mxGeometry x="290" y="770" width="240" height="60" as="geometry" />
        </mxCell>
        <mxCell id="paeWMKHiud1gd23skCGw-59" style="edgeStyle=orthogonalEdgeStyle;rounded=0;orthogonalLoop=1;jettySize=auto;html=1;" parent="1" source="paeWMKHiud1gd23skCGw-7" target="paeWMKHiud1gd23skCGw-57" edge="1">
          <mxGeometry relative="1" as="geometry" />
        </mxCell>
        <mxCell id="paeWMKHiud1gd23skCGw-7" value="Process via cluster_pairwise_predictions_at_threshold and add_unique_id_column" style="rounded=0;whiteSpace=wrap;html=1;" parent="1" vertex="1">
          <mxGeometry x="294" y="900" width="240" height="60" as="geometry" />
        </mxCell>
        <mxCell id="paeWMKHiud1gd23skCGw-12" value="" style="edgeStyle=orthogonalEdgeStyle;rounded=0;orthogonalLoop=1;jettySize=auto;html=1;" parent="1" source="paeWMKHiud1gd23skCGw-9" target="paeWMKHiud1gd23skCGw-11" edge="1">
          <mxGeometry relative="1" as="geometry" />
        </mxCell>
        <mxCell id="paeWMKHiud1gd23skCGw-22" value="" style="edgeStyle=orthogonalEdgeStyle;rounded=0;orthogonalLoop=1;jettySize=auto;html=1;" parent="1" source="paeWMKHiud1gd23skCGw-9" target="paeWMKHiud1gd23skCGw-21" edge="1">
          <mxGeometry relative="1" as="geometry" />
        </mxCell>
        <mxCell id="paeWMKHiud1gd23skCGw-9" value="One of more members of the cluster have common UUID in source?" style="rhombus;whiteSpace=wrap;html=1;" parent="1" vertex="1">
          <mxGeometry x="603" y="1040" width="146" height="140" as="geometry" />
        </mxCell>
        <mxCell id="paeWMKHiud1gd23skCGw-15" value="" style="edgeStyle=orthogonalEdgeStyle;rounded=0;orthogonalLoop=1;jettySize=auto;html=1;" parent="1" source="paeWMKHiud1gd23skCGw-11" target="paeWMKHiud1gd23skCGw-14" edge="1">
          <mxGeometry relative="1" as="geometry" />
        </mxCell>
        <mxCell id="paeWMKHiud1gd23skCGw-69" style="edgeStyle=orthogonalEdgeStyle;rounded=0;orthogonalLoop=1;jettySize=auto;html=1;entryX=0.5;entryY=1;entryDx=0;entryDy=0;" parent="1" source="paeWMKHiud1gd23skCGw-11" target="paeWMKHiud1gd23skCGw-26" edge="1">
          <mxGeometry relative="1" as="geometry" />
        </mxCell>
        <mxCell id="paeWMKHiud1gd23skCGw-11" value="Common UUID is distinct within Cluster?" style="rhombus;whiteSpace=wrap;html=1;" parent="1" vertex="1">
          <mxGeometry x="826" y="1040" width="146" height="140" as="geometry" />
        </mxCell>
        <mxCell id="paeWMKHiud1gd23skCGw-91" style="edgeStyle=orthogonalEdgeStyle;rounded=0;orthogonalLoop=1;jettySize=auto;html=1;exitX=1;exitY=0.5;exitDx=0;exitDy=0;" parent="1" source="paeWMKHiud1gd23skCGw-14" target="paeWMKHiud1gd23skCGw-90" edge="1">
          <mxGeometry relative="1" as="geometry" />
        </mxCell>
        <mxCell id="paeWMKHiud1gd23skCGw-14" value="Assign common UUID to all linked records in cluster" style="rounded=0;whiteSpace=wrap;html=1;" parent="1" vertex="1">
          <mxGeometry x="1063" y="1080" width="240" height="60" as="geometry" />
        </mxCell>
        <mxCell id="paeWMKHiud1gd23skCGw-23" style="edgeStyle=orthogonalEdgeStyle;rounded=0;orthogonalLoop=1;jettySize=auto;html=1;exitX=1;exitY=0.5;exitDx=0;exitDy=0;entryX=0.5;entryY=1;entryDx=0;entryDy=0;" parent="1" source="paeWMKHiud1gd23skCGw-21" target="paeWMKHiud1gd23skCGw-14" edge="1">
          <mxGeometry relative="1" as="geometry">
            <mxPoint x="770" y="1366" as="sourcePoint" />
          </mxGeometry>
        </mxCell>
        <mxCell id="paeWMKHiud1gd23skCGw-21" value="Reserve new common ID for Cluster from central database/index" style="rounded=0;whiteSpace=wrap;html=1;" parent="1" vertex="1">
          <mxGeometry x="556" y="1296" width="240" height="60" as="geometry" />
        </mxCell>
        <mxCell id="paeWMKHiud1gd23skCGw-24" value="" style="group" parent="1" vertex="1" connectable="0">
          <mxGeometry x="1190" y="1396" width="360" height="80" as="geometry" />
        </mxCell>
        <mxCell id="paeWMKHiud1gd23skCGw-16" value="" style="shape=parallelogram;html=1;strokeWidth=2;perimeter=parallelogramPerimeter;whiteSpace=wrap;rounded=1;arcSize=12;size=0.23;" parent="paeWMKHiud1gd23skCGw-24" vertex="1">
          <mxGeometry width="360" height="80" as="geometry" />
        </mxCell>
        <mxCell id="paeWMKHiud1gd23skCGw-17" value="&lt;br style=&quot;border-color: var(--border-color);&quot;&gt;Data Source2" style="strokeWidth=2;html=1;shape=mxgraph.flowchart.database;whiteSpace=wrap;" parent="paeWMKHiud1gd23skCGw-24" vertex="1">
          <mxGeometry x="75" y="10" width="60" height="60" as="geometry" />
        </mxCell>
        <mxCell id="paeWMKHiud1gd23skCGw-18" value="&lt;br&gt;Data Source1" style="strokeWidth=2;html=1;shape=mxgraph.flowchart.database;whiteSpace=wrap;" parent="paeWMKHiud1gd23skCGw-24" vertex="1">
          <mxGeometry x="150" y="10" width="60" height="60" as="geometry" />
        </mxCell>
        <mxCell id="paeWMKHiud1gd23skCGw-19" value="&lt;br style=&quot;border-color: var(--border-color);&quot;&gt;Data Source3" style="strokeWidth=2;html=1;shape=mxgraph.flowchart.database;whiteSpace=wrap;" parent="paeWMKHiud1gd23skCGw-24" vertex="1">
          <mxGeometry x="225" y="10" width="60" height="60" as="geometry" />
        </mxCell>
        <mxCell id="paeWMKHiud1gd23skCGw-25" value="" style="group" parent="1" vertex="1" connectable="0">
          <mxGeometry x="230" y="440" width="360" height="80" as="geometry" />
        </mxCell>
        <mxCell id="mewtpi49gnUvRCOg2McJ-1" value="" style="shape=parallelogram;html=1;strokeWidth=2;perimeter=parallelogramPerimeter;whiteSpace=wrap;rounded=1;arcSize=12;size=0.23;" parent="paeWMKHiud1gd23skCGw-25" vertex="1">
          <mxGeometry width="360" height="80" as="geometry" />
        </mxCell>
        <mxCell id="mewtpi49gnUvRCOg2McJ-2" value="&lt;br style=&quot;border-color: var(--border-color);&quot;&gt;Data Source2" style="strokeWidth=2;html=1;shape=mxgraph.flowchart.database;whiteSpace=wrap;" parent="paeWMKHiud1gd23skCGw-25" vertex="1">
          <mxGeometry x="75" y="10" width="60" height="60" as="geometry" />
        </mxCell>
        <mxCell id="mewtpi49gnUvRCOg2McJ-3" value="&lt;br&gt;Data Source1" style="strokeWidth=2;html=1;shape=mxgraph.flowchart.database;whiteSpace=wrap;" parent="paeWMKHiud1gd23skCGw-25" vertex="1">
          <mxGeometry x="150" y="10" width="60" height="60" as="geometry" />
        </mxCell>
        <mxCell id="mewtpi49gnUvRCOg2McJ-4" value="&lt;br style=&quot;border-color: var(--border-color);&quot;&gt;Data Source3" style="strokeWidth=2;html=1;shape=mxgraph.flowchart.database;whiteSpace=wrap;" parent="paeWMKHiud1gd23skCGw-25" vertex="1">
          <mxGeometry x="225" y="10" width="60" height="60" as="geometry" />
        </mxCell>
        <mxCell id="paeWMKHiud1gd23skCGw-30" style="edgeStyle=orthogonalEdgeStyle;rounded=0;orthogonalLoop=1;jettySize=auto;html=1;exitX=1;exitY=0.5;exitDx=0;exitDy=0;entryX=0.5;entryY=0;entryDx=0;entryDy=0;" parent="1" source="paeWMKHiud1gd23skCGw-26" target="paeWMKHiud1gd23skCGw-14" edge="1">
          <mxGeometry relative="1" as="geometry" />
        </mxCell>
        <mxCell id="paeWMKHiud1gd23skCGw-26" value="Manual review/consolidation" style="html=1;strokeWidth=2;shape=manualInput;whiteSpace=wrap;rounded=1;size=26;arcSize=11;" parent="1" vertex="1">
          <mxGeometry x="806" y="870" width="186" height="80" as="geometry" />
        </mxCell>
        <mxCell id="paeWMKHiud1gd23skCGw-31" value="Common UUID" style="swimlane;fontStyle=0;childLayout=stackLayout;horizontal=1;startSize=30;horizontalStack=0;resizeParent=1;resizeParentMax=0;resizeLast=0;collapsible=1;marginBottom=0;whiteSpace=wrap;html=1;swimlaneLine=1;" parent="1" vertex="1">
          <mxGeometry x="770" y="1634" width="100" height="120" as="geometry" />
        </mxCell>
        <mxCell id="paeWMKHiud1gd23skCGw-32" value="CID-1" style="text;strokeColor=none;fillColor=none;align=left;verticalAlign=middle;spacingLeft=4;spacingRight=4;overflow=hidden;points=[[0,0.5],[1,0.5]];portConstraint=eastwest;rotatable=0;whiteSpace=wrap;html=1;" parent="paeWMKHiud1gd23skCGw-31" vertex="1">
          <mxGeometry y="30" width="100" height="30" as="geometry" />
        </mxCell>
        <mxCell id="paeWMKHiud1gd23skCGw-33" value="CID-1" style="text;strokeColor=none;fillColor=none;align=left;verticalAlign=middle;spacingLeft=4;spacingRight=4;overflow=hidden;points=[[0,0.5],[1,0.5]];portConstraint=eastwest;rotatable=0;whiteSpace=wrap;html=1;" parent="paeWMKHiud1gd23skCGw-31" vertex="1">
          <mxGeometry y="60" width="100" height="30" as="geometry" />
        </mxCell>
        <mxCell id="paeWMKHiud1gd23skCGw-34" value="CID-2" style="text;strokeColor=none;fillColor=none;align=left;verticalAlign=middle;spacingLeft=4;spacingRight=4;overflow=hidden;points=[[0,0.5],[1,0.5]];portConstraint=eastwest;rotatable=0;whiteSpace=wrap;html=1;" parent="paeWMKHiud1gd23skCGw-31" vertex="1">
          <mxGeometry y="90" width="100" height="30" as="geometry" />
        </mxCell>
        <mxCell id="paeWMKHiud1gd23skCGw-39" value="ClusterId" style="swimlane;fontStyle=0;childLayout=stackLayout;horizontal=1;startSize=30;horizontalStack=0;resizeParent=1;resizeParentMax=0;resizeLast=0;collapsible=1;marginBottom=0;whiteSpace=wrap;html=1;swimlaneLine=1;" parent="1" vertex="1">
          <mxGeometry x="870" y="1634" width="100" height="120" as="geometry" />
        </mxCell>
        <mxCell id="paeWMKHiud1gd23skCGw-40" value="54" style="text;strokeColor=none;fillColor=none;align=left;verticalAlign=middle;spacingLeft=4;spacingRight=4;overflow=hidden;points=[[0,0.5],[1,0.5]];portConstraint=eastwest;rotatable=0;whiteSpace=wrap;html=1;" parent="paeWMKHiud1gd23skCGw-39" vertex="1">
          <mxGeometry y="30" width="100" height="30" as="geometry" />
        </mxCell>
        <mxCell id="paeWMKHiud1gd23skCGw-41" value="54" style="text;strokeColor=none;fillColor=none;align=left;verticalAlign=middle;spacingLeft=4;spacingRight=4;overflow=hidden;points=[[0,0.5],[1,0.5]];portConstraint=eastwest;rotatable=0;whiteSpace=wrap;html=1;" parent="paeWMKHiud1gd23skCGw-39" vertex="1">
          <mxGeometry y="60" width="100" height="30" as="geometry" />
        </mxCell>
        <mxCell id="paeWMKHiud1gd23skCGw-42" value="67" style="text;strokeColor=none;fillColor=none;align=left;verticalAlign=middle;spacingLeft=4;spacingRight=4;overflow=hidden;points=[[0,0.5],[1,0.5]];portConstraint=eastwest;rotatable=0;whiteSpace=wrap;html=1;" parent="paeWMKHiud1gd23skCGw-39" vertex="1">
          <mxGeometry y="90" width="100" height="30" as="geometry" />
        </mxCell>
        <mxCell id="paeWMKHiud1gd23skCGw-43" value="Source" style="swimlane;fontStyle=0;childLayout=stackLayout;horizontal=1;startSize=30;horizontalStack=0;resizeParent=1;resizeParentMax=0;resizeLast=0;collapsible=1;marginBottom=0;whiteSpace=wrap;html=1;swimlaneLine=1;" parent="1" vertex="1">
          <mxGeometry x="970" y="1634" width="100" height="120" as="geometry" />
        </mxCell>
        <mxCell id="paeWMKHiud1gd23skCGw-44" value="Source1" style="text;strokeColor=none;fillColor=none;align=left;verticalAlign=middle;spacingLeft=4;spacingRight=4;overflow=hidden;points=[[0,0.5],[1,0.5]];portConstraint=eastwest;rotatable=0;whiteSpace=wrap;html=1;" parent="paeWMKHiud1gd23skCGw-43" vertex="1">
          <mxGeometry y="30" width="100" height="30" as="geometry" />
        </mxCell>
        <mxCell id="paeWMKHiud1gd23skCGw-45" value="Source1" style="text;strokeColor=none;fillColor=none;align=left;verticalAlign=middle;spacingLeft=4;spacingRight=4;overflow=hidden;points=[[0,0.5],[1,0.5]];portConstraint=eastwest;rotatable=0;whiteSpace=wrap;html=1;" parent="paeWMKHiud1gd23skCGw-43" vertex="1">
          <mxGeometry y="60" width="100" height="30" as="geometry" />
        </mxCell>
        <mxCell id="paeWMKHiud1gd23skCGw-46" value="Source2" style="text;strokeColor=none;fillColor=none;align=left;verticalAlign=middle;spacingLeft=4;spacingRight=4;overflow=hidden;points=[[0,0.5],[1,0.5]];portConstraint=eastwest;rotatable=0;whiteSpace=wrap;html=1;" parent="paeWMKHiud1gd23skCGw-43" vertex="1">
          <mxGeometry y="90" width="100" height="30" as="geometry" />
        </mxCell>
        <mxCell id="paeWMKHiud1gd23skCGw-47" value="SourceIdentifer" style="swimlane;fontStyle=0;childLayout=stackLayout;horizontal=1;startSize=30;horizontalStack=0;resizeParent=1;resizeParentMax=0;resizeLast=0;collapsible=1;marginBottom=0;whiteSpace=wrap;html=1;swimlaneLine=1;" parent="1" vertex="1">
          <mxGeometry x="1070" y="1634" width="100" height="120" as="geometry" />
        </mxCell>
        <mxCell id="paeWMKHiud1gd23skCGw-48" value="DG5464" style="text;strokeColor=none;fillColor=none;align=left;verticalAlign=middle;spacingLeft=4;spacingRight=4;overflow=hidden;points=[[0,0.5],[1,0.5]];portConstraint=eastwest;rotatable=0;whiteSpace=wrap;html=1;" parent="paeWMKHiud1gd23skCGw-47" vertex="1">
          <mxGeometry y="30" width="100" height="30" as="geometry" />
        </mxCell>
        <mxCell id="paeWMKHiud1gd23skCGw-49" value="DG5465" style="text;strokeColor=none;fillColor=none;align=left;verticalAlign=middle;spacingLeft=4;spacingRight=4;overflow=hidden;points=[[0,0.5],[1,0.5]];portConstraint=eastwest;rotatable=0;whiteSpace=wrap;html=1;" parent="paeWMKHiud1gd23skCGw-47" vertex="1">
          <mxGeometry y="60" width="100" height="30" as="geometry" />
        </mxCell>
        <mxCell id="paeWMKHiud1gd23skCGw-50" value="353534" style="text;strokeColor=none;fillColor=none;align=left;verticalAlign=middle;spacingLeft=4;spacingRight=4;overflow=hidden;points=[[0,0.5],[1,0.5]];portConstraint=eastwest;rotatable=0;whiteSpace=wrap;html=1;" parent="paeWMKHiud1gd23skCGw-47" vertex="1">
          <mxGeometry y="90" width="100" height="30" as="geometry" />
        </mxCell>
        <mxCell id="paeWMKHiud1gd23skCGw-61" style="edgeStyle=orthogonalEdgeStyle;rounded=0;orthogonalLoop=1;jettySize=auto;html=1;entryX=0;entryY=0.5;entryDx=0;entryDy=0;" parent="1" source="paeWMKHiud1gd23skCGw-57" target="paeWMKHiud1gd23skCGw-9" edge="1">
          <mxGeometry relative="1" as="geometry" />
        </mxCell>
        <mxCell id="paeWMKHiud1gd23skCGw-63" style="edgeStyle=orthogonalEdgeStyle;rounded=0;orthogonalLoop=1;jettySize=auto;html=1;" parent="1" source="paeWMKHiud1gd23skCGw-57" target="paeWMKHiud1gd23skCGw-62" edge="1">
          <mxGeometry relative="1" as="geometry" />
        </mxCell>
        <mxCell id="paeWMKHiud1gd23skCGw-57" value="Any Link or Duplicates Exist for record?" style="rhombus;whiteSpace=wrap;html=1;" parent="1" vertex="1">
          <mxGeometry x="342" y="1040" width="146" height="140" as="geometry" />
        </mxCell>
        <mxCell id="paeWMKHiud1gd23skCGw-65" style="edgeStyle=orthogonalEdgeStyle;rounded=0;orthogonalLoop=1;jettySize=auto;html=1;entryX=0;entryY=0.5;entryDx=0;entryDy=0;exitX=1;exitY=0.5;exitDx=0;exitDy=0;" parent="1" source="paeWMKHiud1gd23skCGw-62" target="paeWMKHiud1gd23skCGw-21" edge="1">
          <mxGeometry relative="1" as="geometry" />
        </mxCell>
        <mxCell id="paeWMKHiud1gd23skCGw-67" style="edgeStyle=orthogonalEdgeStyle;rounded=0;orthogonalLoop=1;jettySize=auto;html=1;" parent="1" source="paeWMKHiud1gd23skCGw-62" target="paeWMKHiud1gd23skCGw-66" edge="1">
          <mxGeometry relative="1" as="geometry" />
        </mxCell>
        <mxCell id="paeWMKHiud1gd23skCGw-62" value="Common UUID populated at source?" style="rhombus;whiteSpace=wrap;html=1;" parent="1" vertex="1">
          <mxGeometry x="344" y="1256" width="140" height="140" as="geometry" />
        </mxCell>
        <mxCell id="paeWMKHiud1gd23skCGw-66" value="End" style="rounded=1;whiteSpace=wrap;html=1;" parent="1" vertex="1">
          <mxGeometry x="353" y="1500" width="120" height="60" as="geometry" />
        </mxCell>
        <mxCell id="paeWMKHiud1gd23skCGw-68" style="edgeStyle=orthogonalEdgeStyle;rounded=0;orthogonalLoop=1;jettySize=auto;html=1;entryX=1;entryY=0.5;entryDx=0;entryDy=0;exitX=0.5;exitY=1;exitDx=0;exitDy=0;" parent="1" source="paeWMKHiud1gd23skCGw-16" target="paeWMKHiud1gd23skCGw-66" edge="1">
          <mxGeometry relative="1" as="geometry">
            <Array as="points">
              <mxPoint x="1370" y="1530" />
            </Array>
          </mxGeometry>
        </mxCell>
        <mxCell id="paeWMKHiud1gd23skCGw-72" value="" style="shape=flexArrow;endArrow=classic;html=1;rounded=0;" parent="1" edge="1">
          <mxGeometry width="50" height="50" relative="1" as="geometry">
            <mxPoint x="1250" y="1310" as="sourcePoint" />
            <mxPoint x="1010" y="1630" as="targetPoint" />
          </mxGeometry>
        </mxCell>
        <mxCell id="paeWMKHiud1gd23skCGw-74" value="&lt;font style=&quot;font-size: 16px;&quot;&gt;&lt;b&gt;No&lt;/b&gt;&lt;/font&gt;" style="text;html=1;strokeColor=none;fillColor=none;align=center;verticalAlign=middle;whiteSpace=wrap;rounded=0;" parent="1" vertex="1">
          <mxGeometry x="484" y="1291" width="60" height="30" as="geometry" />
        </mxCell>
        <mxCell id="paeWMKHiud1gd23skCGw-78" value="&lt;font style=&quot;font-size: 16px;&quot;&gt;&lt;b&gt;No&lt;/b&gt;&lt;/font&gt;" style="text;html=1;strokeColor=none;fillColor=none;align=center;verticalAlign=middle;whiteSpace=wrap;rounded=0;" parent="1" vertex="1">
          <mxGeometry x="360" y="1200" width="60" height="30" as="geometry" />
        </mxCell>
        <mxCell id="paeWMKHiud1gd23skCGw-79" value="&lt;font style=&quot;font-size: 16px;&quot;&gt;&lt;b&gt;No&lt;/b&gt;&lt;/font&gt;" style="text;html=1;strokeColor=none;fillColor=none;align=center;verticalAlign=middle;whiteSpace=wrap;rounded=0;" parent="1" vertex="1">
          <mxGeometry x="620" y="1200" width="60" height="30" as="geometry" />
        </mxCell>
        <mxCell id="paeWMKHiud1gd23skCGw-80" value="&lt;font style=&quot;font-size: 16px;&quot;&gt;&lt;b&gt;No&lt;/b&gt;&lt;/font&gt;" style="text;html=1;strokeColor=none;fillColor=none;align=center;verticalAlign=middle;whiteSpace=wrap;rounded=0;" parent="1" vertex="1">
          <mxGeometry x="890" y="1000" width="60" height="30" as="geometry" />
        </mxCell>
        <mxCell id="paeWMKHiud1gd23skCGw-81" value="&lt;font style=&quot;font-size: 16px;&quot;&gt;&lt;b&gt;Yes&lt;/b&gt;&lt;/font&gt;" style="text;html=1;strokeColor=none;fillColor=none;align=center;verticalAlign=middle;whiteSpace=wrap;rounded=0;" parent="1" vertex="1">
          <mxGeometry x="510" y="1080" width="60" height="30" as="geometry" />
        </mxCell>
        <mxCell id="paeWMKHiud1gd23skCGw-82" value="&lt;font style=&quot;font-size: 16px;&quot;&gt;&lt;b&gt;Yes&lt;/b&gt;&lt;/font&gt;" style="text;html=1;strokeColor=none;fillColor=none;align=center;verticalAlign=middle;whiteSpace=wrap;rounded=0;" parent="1" vertex="1">
          <mxGeometry x="760" y="1080" width="60" height="30" as="geometry" />
        </mxCell>
        <mxCell id="paeWMKHiud1gd23skCGw-83" value="&lt;font style=&quot;font-size: 16px;&quot;&gt;&lt;b&gt;Yes&lt;/b&gt;&lt;/font&gt;" style="text;html=1;strokeColor=none;fillColor=none;align=center;verticalAlign=middle;whiteSpace=wrap;rounded=0;" parent="1" vertex="1">
          <mxGeometry x="980" y="1080" width="60" height="30" as="geometry" />
        </mxCell>
        <mxCell id="paeWMKHiud1gd23skCGw-84" value="&lt;font style=&quot;font-size: 16px;&quot;&gt;&lt;b&gt;Yes&lt;/b&gt;&lt;/font&gt;" style="text;html=1;strokeColor=none;fillColor=none;align=center;verticalAlign=middle;whiteSpace=wrap;rounded=0;" parent="1" vertex="1">
          <mxGeometry x="354" y="1430" width="60" height="30" as="geometry" />
        </mxCell>
        <mxCell id="paeWMKHiud1gd23skCGw-85" value="&lt;font style=&quot;font-size: 17px;&quot;&gt;Version of Truth DB - no PII&lt;/font&gt;" style="text;html=1;strokeColor=none;fillColor=none;align=left;verticalAlign=middle;whiteSpace=wrap;rounded=0;" parent="1" vertex="1">
          <mxGeometry x="820" y="1760" width="450" height="30" as="geometry" />
        </mxCell>
        <mxCell id="paeWMKHiud1gd23skCGw-92" style="edgeStyle=orthogonalEdgeStyle;rounded=0;orthogonalLoop=1;jettySize=auto;html=1;exitX=0.5;exitY=1;exitDx=0;exitDy=0;entryX=0.5;entryY=0;entryDx=0;entryDy=0;" parent="1" source="paeWMKHiud1gd23skCGw-90" target="paeWMKHiud1gd23skCGw-16" edge="1">
          <mxGeometry relative="1" as="geometry" />
        </mxCell>
        <mxCell id="paeWMKHiud1gd23skCGw-90" value="" style="shape=parallelogram;html=1;strokeWidth=2;perimeter=parallelogramPerimeter;whiteSpace=wrap;rounded=1;arcSize=12;size=0.23;" parent="1" vertex="1">
          <mxGeometry x="1270" y="1250" width="200" height="72" as="geometry" />
        </mxCell>
        <mxCell id="paeWMKHiud1gd23skCGw-93" value="Common ID DB" style="strokeWidth=2;html=1;shape=mxgraph.flowchart.database;whiteSpace=wrap;fontSize=10;spacing=4;spacingTop=12;" parent="1" vertex="1">
          <mxGeometry x="1340" y="1256" width="60" height="60" as="geometry" />
        </mxCell>
        <mxCell id="paeWMKHiud1gd23skCGw-96" value="" style="endArrow=classic;startArrow=classic;html=1;rounded=0;exitX=0.5;exitY=1;exitDx=0;exitDy=0;entryX=0;entryY=0.5;entryDx=0;entryDy=0;" parent="1" source="paeWMKHiud1gd23skCGw-21" target="paeWMKHiud1gd23skCGw-90" edge="1">
          <mxGeometry width="50" height="50" relative="1" as="geometry">
            <mxPoint x="910" y="1270" as="sourcePoint" />
            <mxPoint x="960" y="1220" as="targetPoint" />
            <Array as="points">
              <mxPoint x="676" y="1410" />
              <mxPoint x="1230" y="1410" />
              <mxPoint x="1230" y="1286" />
            </Array>
          </mxGeometry>
        </mxCell>
        <mxCell id="0buxVQ3mAKj_gvJqtR5e-1" value="This scenario is for records which have been identified as linked, however, had previously been given different common ids in a previous iteration/run of the process. Possible route causes may include details being updated meaning the records are now matching where they did not before." style="text;html=1;strokeColor=none;fillColor=none;align=left;verticalAlign=middle;whiteSpace=wrap;rounded=0;" parent="1" vertex="1">
          <mxGeometry x="730" y="790" width="350" height="30" as="geometry" />
        </mxCell>
        <mxCell id="0buxVQ3mAKj_gvJqtR5e-2" value="A common version of truth which will allow reconciliation should exist to ensure integrity." style="text;html=1;strokeColor=none;fillColor=none;align=left;verticalAlign=middle;whiteSpace=wrap;rounded=0;" parent="1" vertex="1">
          <mxGeometry x="1420" y="1180" width="150" height="30" as="geometry" />
        </mxCell>
        <mxCell id="0buxVQ3mAKj_gvJqtR5e-3" value="Unique_Id" style="swimlane;fontStyle=0;childLayout=stackLayout;horizontal=1;startSize=30;horizontalStack=0;resizeParent=1;resizeParentMax=0;resizeLast=0;collapsible=1;marginBottom=0;whiteSpace=wrap;html=1;swimlaneLine=1;" parent="1" vertex="1">
          <mxGeometry x="870" y="90" width="100" height="120" as="geometry" />
        </mxCell>
        <mxCell id="0buxVQ3mAKj_gvJqtR5e-4" value="AS356" style="text;strokeColor=none;fillColor=none;align=left;verticalAlign=middle;spacingLeft=4;spacingRight=4;overflow=hidden;points=[[0,0.5],[1,0.5]];portConstraint=eastwest;rotatable=0;whiteSpace=wrap;html=1;" parent="0buxVQ3mAKj_gvJqtR5e-3" vertex="1">
          <mxGeometry y="30" width="100" height="30" as="geometry" />
        </mxCell>
        <mxCell id="0buxVQ3mAKj_gvJqtR5e-5" value="AS352" style="text;strokeColor=none;fillColor=none;align=left;verticalAlign=middle;spacingLeft=4;spacingRight=4;overflow=hidden;points=[[0,0.5],[1,0.5]];portConstraint=eastwest;rotatable=0;whiteSpace=wrap;html=1;" parent="0buxVQ3mAKj_gvJqtR5e-3" vertex="1">
          <mxGeometry y="60" width="100" height="30" as="geometry" />
        </mxCell>
        <mxCell id="0buxVQ3mAKj_gvJqtR5e-6" value="AG467" style="text;strokeColor=none;fillColor=none;align=left;verticalAlign=middle;spacingLeft=4;spacingRight=4;overflow=hidden;points=[[0,0.5],[1,0.5]];portConstraint=eastwest;rotatable=0;whiteSpace=wrap;html=1;" parent="0buxVQ3mAKj_gvJqtR5e-3" vertex="1">
          <mxGeometry y="90" width="100" height="30" as="geometry" />
        </mxCell>
        <mxCell id="0buxVQ3mAKj_gvJqtR5e-7" value="Name" style="swimlane;fontStyle=0;childLayout=stackLayout;horizontal=1;startSize=30;horizontalStack=0;resizeParent=1;resizeParentMax=0;resizeLast=0;collapsible=1;marginBottom=0;whiteSpace=wrap;html=1;swimlaneLine=1;" parent="1" vertex="1">
          <mxGeometry x="970" y="90" width="100" height="120" as="geometry" />
        </mxCell>
        <mxCell id="0buxVQ3mAKj_gvJqtR5e-8" value="John" style="text;strokeColor=none;fillColor=none;align=left;verticalAlign=middle;spacingLeft=4;spacingRight=4;overflow=hidden;points=[[0,0.5],[1,0.5]];portConstraint=eastwest;rotatable=0;whiteSpace=wrap;html=1;" parent="0buxVQ3mAKj_gvJqtR5e-7" vertex="1">
          <mxGeometry y="30" width="100" height="30" as="geometry" />
        </mxCell>
        <mxCell id="0buxVQ3mAKj_gvJqtR5e-9" value="Mark" style="text;strokeColor=none;fillColor=none;align=left;verticalAlign=middle;spacingLeft=4;spacingRight=4;overflow=hidden;points=[[0,0.5],[1,0.5]];portConstraint=eastwest;rotatable=0;whiteSpace=wrap;html=1;" parent="0buxVQ3mAKj_gvJqtR5e-7" vertex="1">
          <mxGeometry y="60" width="100" height="30" as="geometry" />
        </mxCell>
        <mxCell id="0buxVQ3mAKj_gvJqtR5e-10" value="Sarah" style="text;strokeColor=none;fillColor=none;align=left;verticalAlign=middle;spacingLeft=4;spacingRight=4;overflow=hidden;points=[[0,0.5],[1,0.5]];portConstraint=eastwest;rotatable=0;whiteSpace=wrap;html=1;" parent="0buxVQ3mAKj_gvJqtR5e-7" vertex="1">
          <mxGeometry y="90" width="100" height="30" as="geometry" />
        </mxCell>
        <mxCell id="0buxVQ3mAKj_gvJqtR5e-11" value="Surname" style="swimlane;fontStyle=0;childLayout=stackLayout;horizontal=1;startSize=30;horizontalStack=0;resizeParent=1;resizeParentMax=0;resizeLast=0;collapsible=1;marginBottom=0;whiteSpace=wrap;html=1;swimlaneLine=1;" parent="1" vertex="1">
          <mxGeometry x="1070" y="90" width="100" height="120" as="geometry" />
        </mxCell>
        <mxCell id="0buxVQ3mAKj_gvJqtR5e-12" value="Smith" style="text;strokeColor=none;fillColor=none;align=left;verticalAlign=middle;spacingLeft=4;spacingRight=4;overflow=hidden;points=[[0,0.5],[1,0.5]];portConstraint=eastwest;rotatable=0;whiteSpace=wrap;html=1;" parent="0buxVQ3mAKj_gvJqtR5e-11" vertex="1">
          <mxGeometry y="30" width="100" height="30" as="geometry" />
        </mxCell>
        <mxCell id="0buxVQ3mAKj_gvJqtR5e-13" value="Patrick" style="text;strokeColor=none;fillColor=none;align=left;verticalAlign=middle;spacingLeft=4;spacingRight=4;overflow=hidden;points=[[0,0.5],[1,0.5]];portConstraint=eastwest;rotatable=0;whiteSpace=wrap;html=1;" parent="0buxVQ3mAKj_gvJqtR5e-11" vertex="1">
          <mxGeometry y="60" width="100" height="30" as="geometry" />
        </mxCell>
        <mxCell id="0buxVQ3mAKj_gvJqtR5e-14" value="Jane" style="text;strokeColor=none;fillColor=none;align=left;verticalAlign=middle;spacingLeft=4;spacingRight=4;overflow=hidden;points=[[0,0.5],[1,0.5]];portConstraint=eastwest;rotatable=0;whiteSpace=wrap;html=1;" parent="0buxVQ3mAKj_gvJqtR5e-11" vertex="1">
          <mxGeometry y="90" width="100" height="30" as="geometry" />
        </mxCell>
        <mxCell id="0buxVQ3mAKj_gvJqtR5e-15" value="Common_Id" style="swimlane;fontStyle=0;childLayout=stackLayout;horizontal=1;startSize=30;horizontalStack=0;resizeParent=1;resizeParentMax=0;resizeLast=0;collapsible=1;marginBottom=0;whiteSpace=wrap;html=1;swimlaneLine=1;" parent="1" vertex="1">
          <mxGeometry x="1170" y="90" width="100" height="120" as="geometry" />
        </mxCell>
        <mxCell id="0buxVQ3mAKj_gvJqtR5e-16" value="NULL" style="text;strokeColor=none;fillColor=none;align=left;verticalAlign=middle;spacingLeft=4;spacingRight=4;overflow=hidden;points=[[0,0.5],[1,0.5]];portConstraint=eastwest;rotatable=0;whiteSpace=wrap;html=1;" parent="0buxVQ3mAKj_gvJqtR5e-15" vertex="1">
          <mxGeometry y="30" width="100" height="30" as="geometry" />
        </mxCell>
        <mxCell id="0buxVQ3mAKj_gvJqtR5e-17" value="NULL" style="text;strokeColor=none;fillColor=none;align=left;verticalAlign=middle;spacingLeft=4;spacingRight=4;overflow=hidden;points=[[0,0.5],[1,0.5]];portConstraint=eastwest;rotatable=0;whiteSpace=wrap;html=1;" parent="0buxVQ3mAKj_gvJqtR5e-15" vertex="1">
          <mxGeometry y="60" width="100" height="30" as="geometry" />
        </mxCell>
        <mxCell id="0buxVQ3mAKj_gvJqtR5e-18" value="CID-154" style="text;strokeColor=none;fillColor=none;align=left;verticalAlign=middle;spacingLeft=4;spacingRight=4;overflow=hidden;points=[[0,0.5],[1,0.5]];portConstraint=eastwest;rotatable=0;whiteSpace=wrap;html=1;" parent="0buxVQ3mAKj_gvJqtR5e-15" vertex="1">
          <mxGeometry y="90" width="100" height="30" as="geometry" />
        </mxCell>
        <mxCell id="0buxVQ3mAKj_gvJqtR5e-20" value="Unique_Id" style="swimlane;fontStyle=0;childLayout=stackLayout;horizontal=1;startSize=30;horizontalStack=0;resizeParent=1;resizeParentMax=0;resizeLast=0;collapsible=1;marginBottom=0;whiteSpace=wrap;html=1;swimlaneLine=1;" parent="1" vertex="1">
          <mxGeometry x="1300" y="90" width="100" height="120" as="geometry" />
        </mxCell>
        <mxCell id="0buxVQ3mAKj_gvJqtR5e-21" value="46654" style="text;strokeColor=none;fillColor=none;align=left;verticalAlign=middle;spacingLeft=4;spacingRight=4;overflow=hidden;points=[[0,0.5],[1,0.5]];portConstraint=eastwest;rotatable=0;whiteSpace=wrap;html=1;" parent="0buxVQ3mAKj_gvJqtR5e-20" vertex="1">
          <mxGeometry y="30" width="100" height="30" as="geometry" />
        </mxCell>
        <mxCell id="0buxVQ3mAKj_gvJqtR5e-22" value="43543" style="text;strokeColor=none;fillColor=none;align=left;verticalAlign=middle;spacingLeft=4;spacingRight=4;overflow=hidden;points=[[0,0.5],[1,0.5]];portConstraint=eastwest;rotatable=0;whiteSpace=wrap;html=1;" parent="0buxVQ3mAKj_gvJqtR5e-20" vertex="1">
          <mxGeometry y="60" width="100" height="30" as="geometry" />
        </mxCell>
        <mxCell id="0buxVQ3mAKj_gvJqtR5e-23" value="23456" style="text;strokeColor=none;fillColor=none;align=left;verticalAlign=middle;spacingLeft=4;spacingRight=4;overflow=hidden;points=[[0,0.5],[1,0.5]];portConstraint=eastwest;rotatable=0;whiteSpace=wrap;html=1;" parent="0buxVQ3mAKj_gvJqtR5e-20" vertex="1">
          <mxGeometry y="90" width="100" height="30" as="geometry" />
        </mxCell>
        <mxCell id="0buxVQ3mAKj_gvJqtR5e-24" value="Name" style="swimlane;fontStyle=0;childLayout=stackLayout;horizontal=1;startSize=30;horizontalStack=0;resizeParent=1;resizeParentMax=0;resizeLast=0;collapsible=1;marginBottom=0;whiteSpace=wrap;html=1;swimlaneLine=1;" parent="1" vertex="1">
          <mxGeometry x="1400" y="90" width="100" height="120" as="geometry" />
        </mxCell>
        <mxCell id="0buxVQ3mAKj_gvJqtR5e-25" value="John" style="text;strokeColor=none;fillColor=none;align=left;verticalAlign=middle;spacingLeft=4;spacingRight=4;overflow=hidden;points=[[0,0.5],[1,0.5]];portConstraint=eastwest;rotatable=0;whiteSpace=wrap;html=1;" parent="0buxVQ3mAKj_gvJqtR5e-24" vertex="1">
          <mxGeometry y="30" width="100" height="30" as="geometry" />
        </mxCell>
        <mxCell id="0buxVQ3mAKj_gvJqtR5e-26" value="Marc" style="text;strokeColor=none;fillColor=none;align=left;verticalAlign=middle;spacingLeft=4;spacingRight=4;overflow=hidden;points=[[0,0.5],[1,0.5]];portConstraint=eastwest;rotatable=0;whiteSpace=wrap;html=1;" parent="0buxVQ3mAKj_gvJqtR5e-24" vertex="1">
          <mxGeometry y="60" width="100" height="30" as="geometry" />
        </mxCell>
        <mxCell id="0buxVQ3mAKj_gvJqtR5e-27" value="Sara" style="text;strokeColor=none;fillColor=none;align=left;verticalAlign=middle;spacingLeft=4;spacingRight=4;overflow=hidden;points=[[0,0.5],[1,0.5]];portConstraint=eastwest;rotatable=0;whiteSpace=wrap;html=1;" parent="0buxVQ3mAKj_gvJqtR5e-24" vertex="1">
          <mxGeometry y="90" width="100" height="30" as="geometry" />
        </mxCell>
        <mxCell id="0buxVQ3mAKj_gvJqtR5e-28" value="Surname" style="swimlane;fontStyle=0;childLayout=stackLayout;horizontal=1;startSize=30;horizontalStack=0;resizeParent=1;resizeParentMax=0;resizeLast=0;collapsible=1;marginBottom=0;whiteSpace=wrap;html=1;swimlaneLine=1;" parent="1" vertex="1">
          <mxGeometry x="1500" y="90" width="100" height="120" as="geometry" />
        </mxCell>
        <mxCell id="0buxVQ3mAKj_gvJqtR5e-29" value="Smit" style="text;strokeColor=none;fillColor=none;align=left;verticalAlign=middle;spacingLeft=4;spacingRight=4;overflow=hidden;points=[[0,0.5],[1,0.5]];portConstraint=eastwest;rotatable=0;whiteSpace=wrap;html=1;" parent="0buxVQ3mAKj_gvJqtR5e-28" vertex="1">
          <mxGeometry y="30" width="100" height="30" as="geometry" />
        </mxCell>
        <mxCell id="0buxVQ3mAKj_gvJqtR5e-30" value="Patrick" style="text;strokeColor=none;fillColor=none;align=left;verticalAlign=middle;spacingLeft=4;spacingRight=4;overflow=hidden;points=[[0,0.5],[1,0.5]];portConstraint=eastwest;rotatable=0;whiteSpace=wrap;html=1;" parent="0buxVQ3mAKj_gvJqtR5e-28" vertex="1">
          <mxGeometry y="60" width="100" height="30" as="geometry" />
        </mxCell>
        <mxCell id="0buxVQ3mAKj_gvJqtR5e-31" value="Jane" style="text;strokeColor=none;fillColor=none;align=left;verticalAlign=middle;spacingLeft=4;spacingRight=4;overflow=hidden;points=[[0,0.5],[1,0.5]];portConstraint=eastwest;rotatable=0;whiteSpace=wrap;html=1;" parent="0buxVQ3mAKj_gvJqtR5e-28" vertex="1">
          <mxGeometry y="90" width="100" height="30" as="geometry" />
        </mxCell>
        <mxCell id="0buxVQ3mAKj_gvJqtR5e-32" value="Common_Id" style="swimlane;fontStyle=0;childLayout=stackLayout;horizontal=1;startSize=30;horizontalStack=0;resizeParent=1;resizeParentMax=0;resizeLast=0;collapsible=1;marginBottom=0;whiteSpace=wrap;html=1;swimlaneLine=1;" parent="1" vertex="1">
          <mxGeometry x="1600" y="90" width="100" height="120" as="geometry" />
        </mxCell>
        <mxCell id="0buxVQ3mAKj_gvJqtR5e-33" value="NULL" style="text;strokeColor=none;fillColor=none;align=left;verticalAlign=middle;spacingLeft=4;spacingRight=4;overflow=hidden;points=[[0,0.5],[1,0.5]];portConstraint=eastwest;rotatable=0;whiteSpace=wrap;html=1;" parent="0buxVQ3mAKj_gvJqtR5e-32" vertex="1">
          <mxGeometry y="30" width="100" height="30" as="geometry" />
        </mxCell>
        <mxCell id="0buxVQ3mAKj_gvJqtR5e-34" value="NULL" style="text;strokeColor=none;fillColor=none;align=left;verticalAlign=middle;spacingLeft=4;spacingRight=4;overflow=hidden;points=[[0,0.5],[1,0.5]];portConstraint=eastwest;rotatable=0;whiteSpace=wrap;html=1;" parent="0buxVQ3mAKj_gvJqtR5e-32" vertex="1">
          <mxGeometry y="60" width="100" height="30" as="geometry" />
        </mxCell>
        <mxCell id="0buxVQ3mAKj_gvJqtR5e-35" value="NULL" style="text;strokeColor=none;fillColor=none;align=left;verticalAlign=middle;spacingLeft=4;spacingRight=4;overflow=hidden;points=[[0,0.5],[1,0.5]];portConstraint=eastwest;rotatable=0;whiteSpace=wrap;html=1;" parent="0buxVQ3mAKj_gvJqtR5e-32" vertex="1">
          <mxGeometry y="90" width="100" height="30" as="geometry" />
        </mxCell>
        <mxCell id="0buxVQ3mAKj_gvJqtR5e-36" value="Common UUID" style="swimlane;fontStyle=0;childLayout=stackLayout;horizontal=1;startSize=30;horizontalStack=0;resizeParent=1;resizeParentMax=0;resizeLast=0;collapsible=1;marginBottom=0;whiteSpace=wrap;html=1;swimlaneLine=1;" parent="1" vertex="1">
          <mxGeometry x="1100" y="250" width="100" height="210" as="geometry" />
        </mxCell>
        <mxCell id="0buxVQ3mAKj_gvJqtR5e-37" value="CID-154" style="text;strokeColor=none;fillColor=none;align=left;verticalAlign=middle;spacingLeft=4;spacingRight=4;overflow=hidden;points=[[0,0.5],[1,0.5]];portConstraint=eastwest;rotatable=0;whiteSpace=wrap;html=1;" parent="0buxVQ3mAKj_gvJqtR5e-36" vertex="1">
          <mxGeometry y="30" width="100" height="30" as="geometry" />
        </mxCell>
        <mxCell id="0buxVQ3mAKj_gvJqtR5e-38" value="CID-154" style="text;strokeColor=none;fillColor=none;align=left;verticalAlign=middle;spacingLeft=4;spacingRight=4;overflow=hidden;points=[[0,0.5],[1,0.5]];portConstraint=eastwest;rotatable=0;whiteSpace=wrap;html=1;" parent="0buxVQ3mAKj_gvJqtR5e-36" vertex="1">
          <mxGeometry y="60" width="100" height="30" as="geometry" />
        </mxCell>
        <mxCell id="0buxVQ3mAKj_gvJqtR5e-39" value="CID-155" style="text;strokeColor=none;fillColor=none;align=left;verticalAlign=middle;spacingLeft=4;spacingRight=4;overflow=hidden;points=[[0,0.5],[1,0.5]];portConstraint=eastwest;rotatable=0;whiteSpace=wrap;html=1;" parent="0buxVQ3mAKj_gvJqtR5e-36" vertex="1">
          <mxGeometry y="90" width="100" height="30" as="geometry" />
        </mxCell>
        <mxCell id="0buxVQ3mAKj_gvJqtR5e-54" value="CID-155" style="text;strokeColor=none;fillColor=none;align=left;verticalAlign=middle;spacingLeft=4;spacingRight=4;overflow=hidden;points=[[0,0.5],[1,0.5]];portConstraint=eastwest;rotatable=0;whiteSpace=wrap;html=1;" parent="0buxVQ3mAKj_gvJqtR5e-36" vertex="1">
          <mxGeometry y="120" width="100" height="30" as="geometry" />
        </mxCell>
        <mxCell id="0buxVQ3mAKj_gvJqtR5e-58" value="CID-156" style="text;strokeColor=none;fillColor=none;align=left;verticalAlign=middle;spacingLeft=4;spacingRight=4;overflow=hidden;points=[[0,0.5],[1,0.5]];portConstraint=eastwest;rotatable=0;whiteSpace=wrap;html=1;" parent="0buxVQ3mAKj_gvJqtR5e-36" vertex="1">
          <mxGeometry y="150" width="100" height="30" as="geometry" />
        </mxCell>
        <mxCell id="0buxVQ3mAKj_gvJqtR5e-62" value="CID-156" style="text;strokeColor=none;fillColor=none;align=left;verticalAlign=middle;spacingLeft=4;spacingRight=4;overflow=hidden;points=[[0,0.5],[1,0.5]];portConstraint=eastwest;rotatable=0;whiteSpace=wrap;html=1;" parent="0buxVQ3mAKj_gvJqtR5e-36" vertex="1">
          <mxGeometry y="180" width="100" height="30" as="geometry" />
        </mxCell>
        <mxCell id="0buxVQ3mAKj_gvJqtR5e-40" value="ClusterId" style="swimlane;fontStyle=0;childLayout=stackLayout;horizontal=1;startSize=30;horizontalStack=0;resizeParent=1;resizeParentMax=0;resizeLast=0;collapsible=1;marginBottom=0;whiteSpace=wrap;html=1;swimlaneLine=1;" parent="1" vertex="1">
          <mxGeometry x="1200" y="250" width="100" height="210" as="geometry" />
        </mxCell>
        <mxCell id="0buxVQ3mAKj_gvJqtR5e-41" value="54" style="text;strokeColor=none;fillColor=none;align=left;verticalAlign=middle;spacingLeft=4;spacingRight=4;overflow=hidden;points=[[0,0.5],[1,0.5]];portConstraint=eastwest;rotatable=0;whiteSpace=wrap;html=1;" parent="0buxVQ3mAKj_gvJqtR5e-40" vertex="1">
          <mxGeometry y="30" width="100" height="30" as="geometry" />
        </mxCell>
        <mxCell id="0buxVQ3mAKj_gvJqtR5e-42" value="54" style="text;strokeColor=none;fillColor=none;align=left;verticalAlign=middle;spacingLeft=4;spacingRight=4;overflow=hidden;points=[[0,0.5],[1,0.5]];portConstraint=eastwest;rotatable=0;whiteSpace=wrap;html=1;" parent="0buxVQ3mAKj_gvJqtR5e-40" vertex="1">
          <mxGeometry y="60" width="100" height="30" as="geometry" />
        </mxCell>
        <mxCell id="0buxVQ3mAKj_gvJqtR5e-43" value="78" style="text;strokeColor=none;fillColor=none;align=left;verticalAlign=middle;spacingLeft=4;spacingRight=4;overflow=hidden;points=[[0,0.5],[1,0.5]];portConstraint=eastwest;rotatable=0;whiteSpace=wrap;html=1;" parent="0buxVQ3mAKj_gvJqtR5e-40" vertex="1">
          <mxGeometry y="90" width="100" height="30" as="geometry" />
        </mxCell>
        <mxCell id="0buxVQ3mAKj_gvJqtR5e-55" value="78" style="text;strokeColor=none;fillColor=none;align=left;verticalAlign=middle;spacingLeft=4;spacingRight=4;overflow=hidden;points=[[0,0.5],[1,0.5]];portConstraint=eastwest;rotatable=0;whiteSpace=wrap;html=1;" parent="0buxVQ3mAKj_gvJqtR5e-40" vertex="1">
          <mxGeometry y="120" width="100" height="30" as="geometry" />
        </mxCell>
        <mxCell id="0buxVQ3mAKj_gvJqtR5e-59" value="89" style="text;strokeColor=none;fillColor=none;align=left;verticalAlign=middle;spacingLeft=4;spacingRight=4;overflow=hidden;points=[[0,0.5],[1,0.5]];portConstraint=eastwest;rotatable=0;whiteSpace=wrap;html=1;" parent="0buxVQ3mAKj_gvJqtR5e-40" vertex="1">
          <mxGeometry y="150" width="100" height="30" as="geometry" />
        </mxCell>
        <mxCell id="0buxVQ3mAKj_gvJqtR5e-63" value="89" style="text;strokeColor=none;fillColor=none;align=left;verticalAlign=middle;spacingLeft=4;spacingRight=4;overflow=hidden;points=[[0,0.5],[1,0.5]];portConstraint=eastwest;rotatable=0;whiteSpace=wrap;html=1;" parent="0buxVQ3mAKj_gvJqtR5e-40" vertex="1">
          <mxGeometry y="180" width="100" height="30" as="geometry" />
        </mxCell>
        <mxCell id="0buxVQ3mAKj_gvJqtR5e-44" value="Source" style="swimlane;fontStyle=0;childLayout=stackLayout;horizontal=1;startSize=30;horizontalStack=0;resizeParent=1;resizeParentMax=0;resizeLast=0;collapsible=1;marginBottom=0;whiteSpace=wrap;html=1;swimlaneLine=1;" parent="1" vertex="1">
          <mxGeometry x="1300" y="250" width="100" height="210" as="geometry" />
        </mxCell>
        <mxCell id="0buxVQ3mAKj_gvJqtR5e-45" value="Source1" style="text;strokeColor=none;fillColor=none;align=left;verticalAlign=middle;spacingLeft=4;spacingRight=4;overflow=hidden;points=[[0,0.5],[1,0.5]];portConstraint=eastwest;rotatable=0;whiteSpace=wrap;html=1;" parent="0buxVQ3mAKj_gvJqtR5e-44" vertex="1">
          <mxGeometry y="30" width="100" height="30" as="geometry" />
        </mxCell>
        <mxCell id="0buxVQ3mAKj_gvJqtR5e-46" value="Source2" style="text;strokeColor=none;fillColor=none;align=left;verticalAlign=middle;spacingLeft=4;spacingRight=4;overflow=hidden;points=[[0,0.5],[1,0.5]];portConstraint=eastwest;rotatable=0;whiteSpace=wrap;html=1;" parent="0buxVQ3mAKj_gvJqtR5e-44" vertex="1">
          <mxGeometry y="60" width="100" height="30" as="geometry" />
        </mxCell>
        <mxCell id="0buxVQ3mAKj_gvJqtR5e-47" value="Source1" style="text;strokeColor=none;fillColor=none;align=left;verticalAlign=middle;spacingLeft=4;spacingRight=4;overflow=hidden;points=[[0,0.5],[1,0.5]];portConstraint=eastwest;rotatable=0;whiteSpace=wrap;html=1;" parent="0buxVQ3mAKj_gvJqtR5e-44" vertex="1">
          <mxGeometry y="90" width="100" height="30" as="geometry" />
        </mxCell>
        <mxCell id="0buxVQ3mAKj_gvJqtR5e-56" value="Source2" style="text;strokeColor=none;fillColor=none;align=left;verticalAlign=middle;spacingLeft=4;spacingRight=4;overflow=hidden;points=[[0,0.5],[1,0.5]];portConstraint=eastwest;rotatable=0;whiteSpace=wrap;html=1;" parent="0buxVQ3mAKj_gvJqtR5e-44" vertex="1">
          <mxGeometry y="120" width="100" height="30" as="geometry" />
        </mxCell>
        <mxCell id="0buxVQ3mAKj_gvJqtR5e-60" value="Source1" style="text;strokeColor=none;fillColor=none;align=left;verticalAlign=middle;spacingLeft=4;spacingRight=4;overflow=hidden;points=[[0,0.5],[1,0.5]];portConstraint=eastwest;rotatable=0;whiteSpace=wrap;html=1;" parent="0buxVQ3mAKj_gvJqtR5e-44" vertex="1">
          <mxGeometry y="150" width="100" height="30" as="geometry" />
        </mxCell>
        <mxCell id="0buxVQ3mAKj_gvJqtR5e-64" value="Source2" style="text;strokeColor=none;fillColor=none;align=left;verticalAlign=middle;spacingLeft=4;spacingRight=4;overflow=hidden;points=[[0,0.5],[1,0.5]];portConstraint=eastwest;rotatable=0;whiteSpace=wrap;html=1;" parent="0buxVQ3mAKj_gvJqtR5e-44" vertex="1">
          <mxGeometry y="180" width="100" height="30" as="geometry" />
        </mxCell>
        <mxCell id="0buxVQ3mAKj_gvJqtR5e-48" value="SourceIdentifer" style="swimlane;fontStyle=0;childLayout=stackLayout;horizontal=1;startSize=30;horizontalStack=0;resizeParent=1;resizeParentMax=0;resizeLast=0;collapsible=1;marginBottom=0;whiteSpace=wrap;html=1;swimlaneLine=1;" parent="1" vertex="1">
          <mxGeometry x="1400" y="250" width="100" height="210" as="geometry" />
        </mxCell>
        <mxCell id="0buxVQ3mAKj_gvJqtR5e-49" value="AG467" style="text;strokeColor=none;fillColor=none;align=left;verticalAlign=middle;spacingLeft=4;spacingRight=4;overflow=hidden;points=[[0,0.5],[1,0.5]];portConstraint=eastwest;rotatable=0;whiteSpace=wrap;html=1;" parent="0buxVQ3mAKj_gvJqtR5e-48" vertex="1">
          <mxGeometry y="30" width="100" height="30" as="geometry" />
        </mxCell>
        <mxCell id="0buxVQ3mAKj_gvJqtR5e-50" value="23456" style="text;strokeColor=none;fillColor=none;align=left;verticalAlign=middle;spacingLeft=4;spacingRight=4;overflow=hidden;points=[[0,0.5],[1,0.5]];portConstraint=eastwest;rotatable=0;whiteSpace=wrap;html=1;" parent="0buxVQ3mAKj_gvJqtR5e-48" vertex="1">
          <mxGeometry y="60" width="100" height="30" as="geometry" />
        </mxCell>
        <mxCell id="0buxVQ3mAKj_gvJqtR5e-51" value="AS356" style="text;strokeColor=none;fillColor=none;align=left;verticalAlign=middle;spacingLeft=4;spacingRight=4;overflow=hidden;points=[[0,0.5],[1,0.5]];portConstraint=eastwest;rotatable=0;whiteSpace=wrap;html=1;" parent="0buxVQ3mAKj_gvJqtR5e-48" vertex="1">
          <mxGeometry y="90" width="100" height="30" as="geometry" />
        </mxCell>
        <mxCell id="0buxVQ3mAKj_gvJqtR5e-57" value="46654" style="text;strokeColor=none;fillColor=none;align=left;verticalAlign=middle;spacingLeft=4;spacingRight=4;overflow=hidden;points=[[0,0.5],[1,0.5]];portConstraint=eastwest;rotatable=0;whiteSpace=wrap;html=1;" parent="0buxVQ3mAKj_gvJqtR5e-48" vertex="1">
          <mxGeometry y="120" width="100" height="30" as="geometry" />
        </mxCell>
        <mxCell id="0buxVQ3mAKj_gvJqtR5e-61" value="AS352" style="text;strokeColor=none;fillColor=none;align=left;verticalAlign=middle;spacingLeft=4;spacingRight=4;overflow=hidden;points=[[0,0.5],[1,0.5]];portConstraint=eastwest;rotatable=0;whiteSpace=wrap;html=1;" parent="0buxVQ3mAKj_gvJqtR5e-48" vertex="1">
          <mxGeometry y="150" width="100" height="30" as="geometry" />
        </mxCell>
        <mxCell id="0buxVQ3mAKj_gvJqtR5e-65" value="43543" style="text;strokeColor=none;fillColor=none;align=left;verticalAlign=middle;spacingLeft=4;spacingRight=4;overflow=hidden;points=[[0,0.5],[1,0.5]];portConstraint=eastwest;rotatable=0;whiteSpace=wrap;html=1;" parent="0buxVQ3mAKj_gvJqtR5e-48" vertex="1">
          <mxGeometry y="180" width="100" height="30" as="geometry" />
        </mxCell>
        <mxCell id="0buxVQ3mAKj_gvJqtR5e-66" value="Unique_Id" style="swimlane;fontStyle=0;childLayout=stackLayout;horizontal=1;startSize=30;horizontalStack=0;resizeParent=1;resizeParentMax=0;resizeLast=0;collapsible=1;marginBottom=0;whiteSpace=wrap;html=1;swimlaneLine=1;" parent="1" vertex="1">
          <mxGeometry x="870" y="510" width="100" height="120" as="geometry" />
        </mxCell>
        <mxCell id="0buxVQ3mAKj_gvJqtR5e-67" value="AS356" style="text;strokeColor=none;fillColor=none;align=left;verticalAlign=middle;spacingLeft=4;spacingRight=4;overflow=hidden;points=[[0,0.5],[1,0.5]];portConstraint=eastwest;rotatable=0;whiteSpace=wrap;html=1;" parent="0buxVQ3mAKj_gvJqtR5e-66" vertex="1">
          <mxGeometry y="30" width="100" height="30" as="geometry" />
        </mxCell>
        <mxCell id="0buxVQ3mAKj_gvJqtR5e-68" value="AS352" style="text;strokeColor=none;fillColor=none;align=left;verticalAlign=middle;spacingLeft=4;spacingRight=4;overflow=hidden;points=[[0,0.5],[1,0.5]];portConstraint=eastwest;rotatable=0;whiteSpace=wrap;html=1;" parent="0buxVQ3mAKj_gvJqtR5e-66" vertex="1">
          <mxGeometry y="60" width="100" height="30" as="geometry" />
        </mxCell>
        <mxCell id="0buxVQ3mAKj_gvJqtR5e-69" value="AG467" style="text;strokeColor=none;fillColor=none;align=left;verticalAlign=middle;spacingLeft=4;spacingRight=4;overflow=hidden;points=[[0,0.5],[1,0.5]];portConstraint=eastwest;rotatable=0;whiteSpace=wrap;html=1;" parent="0buxVQ3mAKj_gvJqtR5e-66" vertex="1">
          <mxGeometry y="90" width="100" height="30" as="geometry" />
        </mxCell>
        <mxCell id="0buxVQ3mAKj_gvJqtR5e-70" value="Name" style="swimlane;fontStyle=0;childLayout=stackLayout;horizontal=1;startSize=30;horizontalStack=0;resizeParent=1;resizeParentMax=0;resizeLast=0;collapsible=1;marginBottom=0;whiteSpace=wrap;html=1;swimlaneLine=1;" parent="1" vertex="1">
          <mxGeometry x="970" y="510" width="100" height="120" as="geometry" />
        </mxCell>
        <mxCell id="0buxVQ3mAKj_gvJqtR5e-71" value="John" style="text;strokeColor=none;fillColor=none;align=left;verticalAlign=middle;spacingLeft=4;spacingRight=4;overflow=hidden;points=[[0,0.5],[1,0.5]];portConstraint=eastwest;rotatable=0;whiteSpace=wrap;html=1;" parent="0buxVQ3mAKj_gvJqtR5e-70" vertex="1">
          <mxGeometry y="30" width="100" height="30" as="geometry" />
        </mxCell>
        <mxCell id="0buxVQ3mAKj_gvJqtR5e-72" value="Mark" style="text;strokeColor=none;fillColor=none;align=left;verticalAlign=middle;spacingLeft=4;spacingRight=4;overflow=hidden;points=[[0,0.5],[1,0.5]];portConstraint=eastwest;rotatable=0;whiteSpace=wrap;html=1;" parent="0buxVQ3mAKj_gvJqtR5e-70" vertex="1">
          <mxGeometry y="60" width="100" height="30" as="geometry" />
        </mxCell>
        <mxCell id="0buxVQ3mAKj_gvJqtR5e-73" value="Sarah" style="text;strokeColor=none;fillColor=none;align=left;verticalAlign=middle;spacingLeft=4;spacingRight=4;overflow=hidden;points=[[0,0.5],[1,0.5]];portConstraint=eastwest;rotatable=0;whiteSpace=wrap;html=1;" parent="0buxVQ3mAKj_gvJqtR5e-70" vertex="1">
          <mxGeometry y="90" width="100" height="30" as="geometry" />
        </mxCell>
        <mxCell id="0buxVQ3mAKj_gvJqtR5e-74" value="Surname" style="swimlane;fontStyle=0;childLayout=stackLayout;horizontal=1;startSize=30;horizontalStack=0;resizeParent=1;resizeParentMax=0;resizeLast=0;collapsible=1;marginBottom=0;whiteSpace=wrap;html=1;swimlaneLine=1;" parent="1" vertex="1">
          <mxGeometry x="1070" y="510" width="100" height="120" as="geometry" />
        </mxCell>
        <mxCell id="0buxVQ3mAKj_gvJqtR5e-75" value="Smith" style="text;strokeColor=none;fillColor=none;align=left;verticalAlign=middle;spacingLeft=4;spacingRight=4;overflow=hidden;points=[[0,0.5],[1,0.5]];portConstraint=eastwest;rotatable=0;whiteSpace=wrap;html=1;" parent="0buxVQ3mAKj_gvJqtR5e-74" vertex="1">
          <mxGeometry y="30" width="100" height="30" as="geometry" />
        </mxCell>
        <mxCell id="0buxVQ3mAKj_gvJqtR5e-76" value="Patrick" style="text;strokeColor=none;fillColor=none;align=left;verticalAlign=middle;spacingLeft=4;spacingRight=4;overflow=hidden;points=[[0,0.5],[1,0.5]];portConstraint=eastwest;rotatable=0;whiteSpace=wrap;html=1;" parent="0buxVQ3mAKj_gvJqtR5e-74" vertex="1">
          <mxGeometry y="60" width="100" height="30" as="geometry" />
        </mxCell>
        <mxCell id="0buxVQ3mAKj_gvJqtR5e-77" value="Jane" style="text;strokeColor=none;fillColor=none;align=left;verticalAlign=middle;spacingLeft=4;spacingRight=4;overflow=hidden;points=[[0,0.5],[1,0.5]];portConstraint=eastwest;rotatable=0;whiteSpace=wrap;html=1;" parent="0buxVQ3mAKj_gvJqtR5e-74" vertex="1">
          <mxGeometry y="90" width="100" height="30" as="geometry" />
        </mxCell>
        <mxCell id="0buxVQ3mAKj_gvJqtR5e-78" value="Common_Id" style="swimlane;fontStyle=0;childLayout=stackLayout;horizontal=1;startSize=30;horizontalStack=0;resizeParent=1;resizeParentMax=0;resizeLast=0;collapsible=1;marginBottom=0;whiteSpace=wrap;html=1;swimlaneLine=1;" parent="1" vertex="1">
          <mxGeometry x="1170" y="510" width="100" height="120" as="geometry" />
        </mxCell>
        <mxCell id="0buxVQ3mAKj_gvJqtR5e-79" value="CID-155" style="text;strokeColor=none;fillColor=none;align=left;verticalAlign=middle;spacingLeft=4;spacingRight=4;overflow=hidden;points=[[0,0.5],[1,0.5]];portConstraint=eastwest;rotatable=0;whiteSpace=wrap;html=1;" parent="0buxVQ3mAKj_gvJqtR5e-78" vertex="1">
          <mxGeometry y="30" width="100" height="30" as="geometry" />
        </mxCell>
        <mxCell id="0buxVQ3mAKj_gvJqtR5e-80" value="CID-156" style="text;strokeColor=none;fillColor=none;align=left;verticalAlign=middle;spacingLeft=4;spacingRight=4;overflow=hidden;points=[[0,0.5],[1,0.5]];portConstraint=eastwest;rotatable=0;whiteSpace=wrap;html=1;" parent="0buxVQ3mAKj_gvJqtR5e-78" vertex="1">
          <mxGeometry y="60" width="100" height="30" as="geometry" />
        </mxCell>
        <mxCell id="0buxVQ3mAKj_gvJqtR5e-81" value="CID-154" style="text;strokeColor=none;fillColor=none;align=left;verticalAlign=middle;spacingLeft=4;spacingRight=4;overflow=hidden;points=[[0,0.5],[1,0.5]];portConstraint=eastwest;rotatable=0;whiteSpace=wrap;html=1;" parent="0buxVQ3mAKj_gvJqtR5e-78" vertex="1">
          <mxGeometry y="90" width="100" height="30" as="geometry" />
        </mxCell>
        <mxCell id="0buxVQ3mAKj_gvJqtR5e-82" value="Unique_Id" style="swimlane;fontStyle=0;childLayout=stackLayout;horizontal=1;startSize=30;horizontalStack=0;resizeParent=1;resizeParentMax=0;resizeLast=0;collapsible=1;marginBottom=0;whiteSpace=wrap;html=1;swimlaneLine=1;" parent="1" vertex="1">
          <mxGeometry x="1300" y="510" width="100" height="120" as="geometry" />
        </mxCell>
        <mxCell id="0buxVQ3mAKj_gvJqtR5e-83" value="46654" style="text;strokeColor=none;fillColor=none;align=left;verticalAlign=middle;spacingLeft=4;spacingRight=4;overflow=hidden;points=[[0,0.5],[1,0.5]];portConstraint=eastwest;rotatable=0;whiteSpace=wrap;html=1;" parent="0buxVQ3mAKj_gvJqtR5e-82" vertex="1">
          <mxGeometry y="30" width="100" height="30" as="geometry" />
        </mxCell>
        <mxCell id="0buxVQ3mAKj_gvJqtR5e-84" value="43543" style="text;strokeColor=none;fillColor=none;align=left;verticalAlign=middle;spacingLeft=4;spacingRight=4;overflow=hidden;points=[[0,0.5],[1,0.5]];portConstraint=eastwest;rotatable=0;whiteSpace=wrap;html=1;" parent="0buxVQ3mAKj_gvJqtR5e-82" vertex="1">
          <mxGeometry y="60" width="100" height="30" as="geometry" />
        </mxCell>
        <mxCell id="0buxVQ3mAKj_gvJqtR5e-85" value="23456" style="text;strokeColor=none;fillColor=none;align=left;verticalAlign=middle;spacingLeft=4;spacingRight=4;overflow=hidden;points=[[0,0.5],[1,0.5]];portConstraint=eastwest;rotatable=0;whiteSpace=wrap;html=1;" parent="0buxVQ3mAKj_gvJqtR5e-82" vertex="1">
          <mxGeometry y="90" width="100" height="30" as="geometry" />
        </mxCell>
        <mxCell id="0buxVQ3mAKj_gvJqtR5e-86" value="Name" style="swimlane;fontStyle=0;childLayout=stackLayout;horizontal=1;startSize=30;horizontalStack=0;resizeParent=1;resizeParentMax=0;resizeLast=0;collapsible=1;marginBottom=0;whiteSpace=wrap;html=1;swimlaneLine=1;" parent="1" vertex="1">
          <mxGeometry x="1400" y="510" width="100" height="120" as="geometry" />
        </mxCell>
        <mxCell id="0buxVQ3mAKj_gvJqtR5e-87" value="John" style="text;strokeColor=none;fillColor=none;align=left;verticalAlign=middle;spacingLeft=4;spacingRight=4;overflow=hidden;points=[[0,0.5],[1,0.5]];portConstraint=eastwest;rotatable=0;whiteSpace=wrap;html=1;" parent="0buxVQ3mAKj_gvJqtR5e-86" vertex="1">
          <mxGeometry y="30" width="100" height="30" as="geometry" />
        </mxCell>
        <mxCell id="0buxVQ3mAKj_gvJqtR5e-88" value="Marc" style="text;strokeColor=none;fillColor=none;align=left;verticalAlign=middle;spacingLeft=4;spacingRight=4;overflow=hidden;points=[[0,0.5],[1,0.5]];portConstraint=eastwest;rotatable=0;whiteSpace=wrap;html=1;" parent="0buxVQ3mAKj_gvJqtR5e-86" vertex="1">
          <mxGeometry y="60" width="100" height="30" as="geometry" />
        </mxCell>
        <mxCell id="0buxVQ3mAKj_gvJqtR5e-89" value="Sara" style="text;strokeColor=none;fillColor=none;align=left;verticalAlign=middle;spacingLeft=4;spacingRight=4;overflow=hidden;points=[[0,0.5],[1,0.5]];portConstraint=eastwest;rotatable=0;whiteSpace=wrap;html=1;" parent="0buxVQ3mAKj_gvJqtR5e-86" vertex="1">
          <mxGeometry y="90" width="100" height="30" as="geometry" />
        </mxCell>
        <mxCell id="0buxVQ3mAKj_gvJqtR5e-90" value="Surname" style="swimlane;fontStyle=0;childLayout=stackLayout;horizontal=1;startSize=30;horizontalStack=0;resizeParent=1;resizeParentMax=0;resizeLast=0;collapsible=1;marginBottom=0;whiteSpace=wrap;html=1;swimlaneLine=1;" parent="1" vertex="1">
          <mxGeometry x="1500" y="510" width="100" height="120" as="geometry" />
        </mxCell>
        <mxCell id="0buxVQ3mAKj_gvJqtR5e-91" value="Smit" style="text;strokeColor=none;fillColor=none;align=left;verticalAlign=middle;spacingLeft=4;spacingRight=4;overflow=hidden;points=[[0,0.5],[1,0.5]];portConstraint=eastwest;rotatable=0;whiteSpace=wrap;html=1;" parent="0buxVQ3mAKj_gvJqtR5e-90" vertex="1">
          <mxGeometry y="30" width="100" height="30" as="geometry" />
        </mxCell>
        <mxCell id="0buxVQ3mAKj_gvJqtR5e-92" value="Patrick" style="text;strokeColor=none;fillColor=none;align=left;verticalAlign=middle;spacingLeft=4;spacingRight=4;overflow=hidden;points=[[0,0.5],[1,0.5]];portConstraint=eastwest;rotatable=0;whiteSpace=wrap;html=1;" parent="0buxVQ3mAKj_gvJqtR5e-90" vertex="1">
          <mxGeometry y="60" width="100" height="30" as="geometry" />
        </mxCell>
        <mxCell id="0buxVQ3mAKj_gvJqtR5e-93" value="Jane" style="text;strokeColor=none;fillColor=none;align=left;verticalAlign=middle;spacingLeft=4;spacingRight=4;overflow=hidden;points=[[0,0.5],[1,0.5]];portConstraint=eastwest;rotatable=0;whiteSpace=wrap;html=1;" parent="0buxVQ3mAKj_gvJqtR5e-90" vertex="1">
          <mxGeometry y="90" width="100" height="30" as="geometry" />
        </mxCell>
        <mxCell id="0buxVQ3mAKj_gvJqtR5e-94" value="Common_Id" style="swimlane;fontStyle=0;childLayout=stackLayout;horizontal=1;startSize=30;horizontalStack=0;resizeParent=1;resizeParentMax=0;resizeLast=0;collapsible=1;marginBottom=0;whiteSpace=wrap;html=1;swimlaneLine=1;" parent="1" vertex="1">
          <mxGeometry x="1600" y="510" width="100" height="120" as="geometry" />
        </mxCell>
        <mxCell id="0buxVQ3mAKj_gvJqtR5e-95" value="CID-155" style="text;strokeColor=none;fillColor=none;align=left;verticalAlign=middle;spacingLeft=4;spacingRight=4;overflow=hidden;points=[[0,0.5],[1,0.5]];portConstraint=eastwest;rotatable=0;whiteSpace=wrap;html=1;" parent="0buxVQ3mAKj_gvJqtR5e-94" vertex="1">
          <mxGeometry y="30" width="100" height="30" as="geometry" />
        </mxCell>
        <mxCell id="0buxVQ3mAKj_gvJqtR5e-96" value="CID-156" style="text;strokeColor=none;fillColor=none;align=left;verticalAlign=middle;spacingLeft=4;spacingRight=4;overflow=hidden;points=[[0,0.5],[1,0.5]];portConstraint=eastwest;rotatable=0;whiteSpace=wrap;html=1;" parent="0buxVQ3mAKj_gvJqtR5e-94" vertex="1">
          <mxGeometry y="60" width="100" height="30" as="geometry" />
        </mxCell>
        <mxCell id="0buxVQ3mAKj_gvJqtR5e-97" value="CID-154" style="text;strokeColor=none;fillColor=none;align=left;verticalAlign=middle;spacingLeft=4;spacingRight=4;overflow=hidden;points=[[0,0.5],[1,0.5]];portConstraint=eastwest;rotatable=0;whiteSpace=wrap;html=1;" parent="0buxVQ3mAKj_gvJqtR5e-94" vertex="1">
          <mxGeometry y="90" width="100" height="30" as="geometry" />
        </mxCell>
        <mxCell id="0buxVQ3mAKj_gvJqtR5e-98" value="" style="endArrow=classic;html=1;rounded=0;exitX=0;exitY=0.889;exitDx=0;exitDy=0;exitPerimeter=0;entryX=0;entryY=0;entryDx=0;entryDy=0;" parent="1" source="0buxVQ3mAKj_gvJqtR5e-14" target="0buxVQ3mAKj_gvJqtR5e-44" edge="1">
          <mxGeometry width="50" height="50" relative="1" as="geometry">
            <mxPoint x="1020" y="500" as="sourcePoint" />
            <mxPoint x="1070" y="450" as="targetPoint" />
            <Array as="points">
              <mxPoint x="1070" y="230" />
              <mxPoint x="1300" y="230" />
            </Array>
          </mxGeometry>
        </mxCell>
        <mxCell id="0buxVQ3mAKj_gvJqtR5e-100" value="" style="endArrow=classic;html=1;rounded=0;exitX=0.01;exitY=0.967;exitDx=0;exitDy=0;exitPerimeter=0;entryX=0;entryY=0;entryDx=0;entryDy=0;" parent="1" target="0buxVQ3mAKj_gvJqtR5e-90" edge="1">
          <mxGeometry width="50" height="50" relative="1" as="geometry">
            <mxPoint x="1300" y="460" as="sourcePoint" />
            <mxPoint x="1529" y="501" as="targetPoint" />
            <Array as="points">
              <mxPoint x="1300" y="480" />
              <mxPoint x="1400" y="480" />
              <mxPoint x="1500" y="480" />
            </Array>
          </mxGeometry>
        </mxCell>
        <mxCell id="0buxVQ3mAKj_gvJqtR5e-101" value="" style="endArrow=classic;html=1;rounded=0;entryX=0;entryY=0;entryDx=0;entryDy=0;" parent="1" target="0buxVQ3mAKj_gvJqtR5e-74" edge="1">
          <mxGeometry width="50" height="50" relative="1" as="geometry">
            <mxPoint x="1300" y="460" as="sourcePoint" />
            <mxPoint x="1410" y="510" as="targetPoint" />
            <Array as="points">
              <mxPoint x="1300" y="480" />
              <mxPoint x="1070" y="480" />
            </Array>
          </mxGeometry>
        </mxCell>
        <mxCell id="0buxVQ3mAKj_gvJqtR5e-102" value="" style="endArrow=classic;html=1;rounded=0;entryX=0;entryY=0;entryDx=0;entryDy=0;" parent="1" target="0buxVQ3mAKj_gvJqtR5e-44" edge="1">
          <mxGeometry width="50" height="50" relative="1" as="geometry">
            <mxPoint x="1500" y="210" as="sourcePoint" />
            <mxPoint x="1310" y="260" as="targetPoint" />
            <Array as="points">
              <mxPoint x="1500" y="230" />
              <mxPoint x="1300" y="230" />
            </Array>
          </mxGeometry>
        </mxCell>
      </root>
    </mxGraphModel>
  </diagram>
</mxfile>
